<?xml version="1.0" standalone="no"?>
<!DOCTYPE svg PUBLIC "-//W3C//DTD SVG 20010904//EN"
 "http://www.w3.org/TR/2001/REC-SVG-20010904/DTD/svg10.dtd">
<svg version="1.0" xmlns="http://www.w3.org/2000/svg"
 width="1920.000000pt" height="1080.000000pt" viewBox="0 0 1920.000000 1080.000000"
 preserveAspectRatio="xMidYMid meet">

<g transform="translate(0.000000,1080.000000) scale(0.100000,-0.100000)"
fill="#000000" stroke="none">
<path d="M0 5400 l0 -5400 4895 0 4895 0 0 5400 0 5400 -4895 0 -4895 0 0
-5400z m3711 3828 c89 -26 154 -116 184 -252 26 -116 17 -318 -20 -441 -99
-337 -302 -606 -509 -675 -65 -21 -150 -16 -199 13 -54 32 -114 104 -137 165
-112 294 44 822 315 1070 127 116 248 156 366 120z m-291 -1667 c0 -4 -15 -23
-32 -42 -18 -19 -33 -36 -33 -39 0 -3 -3 -4 -7 -2 -5 1 -7 -4 -5 -10 1 -7 -3
-12 -8 -11 -6 1 -12 -7 -12 -18 -2 -27 -22 -51 -36 -42 -5 3 -7 1 -3 -5 3 -6
1 -17 -6 -24 -7 -8 -18 -23 -25 -33 -6 -11 -16 -19 -23 -17 -6 1 -9 -2 -6 -7
4 -5 0 -15 -7 -23 -7 -7 -15 -17 -16 -23 -2 -5 -7 -9 -13 -7 -5 1 -7 -2 -4 -7
4 -5 -5 -21 -19 -35 -14 -14 -26 -29 -28 -33 -1 -5 -6 -7 -10 -5 -5 1 -6 -2
-3 -7 4 -5 1 -16 -6 -23 -7 -8 -18 -23 -25 -33 -6 -11 -16 -19 -23 -17 -6 1
-9 -2 -6 -7 4 -5 -1 -16 -9 -25 -9 -8 -16 -19 -16 -23 -1 -4 -5 -7 -10 -5 -5
1 -8 -4 -7 -10 2 -7 -3 -12 -10 -10 -8 1 -11 -2 -8 -7 4 -5 -1 -16 -9 -25 -9
-8 -17 -19 -18 -23 -1 -4 -6 -7 -10 -5 -5 1 -6 -2 -3 -7 4 -5 1 -16 -6 -23 -7
-8 -18 -23 -25 -33 -6 -11 -16 -19 -23 -17 -6 1 -9 -2 -6 -7 4 -5 -1 -16 -9
-24 -8 -9 -15 -20 -15 -25 0 -5 -14 -23 -30 -40 -17 -18 -31 -35 -33 -39 -1
-5 -6 -7 -10 -5 -5 1 -6 -2 -3 -7 4 -5 -1 -16 -9 -24 -8 -9 -15 -20 -15 -26 0
-5 -4 -12 -9 -15 -5 -4 -7 3 -4 14 3 11 9 23 14 26 5 3 9 14 9 25 0 10 4 19
10 19 5 0 9 3 9 8 -4 24 2 42 13 36 7 -4 8 -3 4 4 -16 26 135 296 251 451 71
95 191 220 246 257 23 16 51 37 61 47 21 18 36 22 36 8z m-1166 -273 c28 -24
64 -55 80 -69 l29 -27 -56 -99 c-30 -54 -83 -147 -116 -208 l-61 -110 0 72 c0
67 -13 103 -26 70 -3 -8 -20 -23 -39 -33 -28 -15 -36 -16 -49 -5 -9 8 -16 26
-16 42 0 28 183 409 196 409 3 0 29 -19 58 -42z m3081 -193 c22 -21 25 -33 25
-96 0 -78 -2 -82 -70 -118 l-36 -19 4 32 c2 21 -3 40 -15 55 -18 22 -22 23
-49 10 -39 -19 -77 -92 -71 -140 4 -32 1 -37 -27 -49 -17 -7 -33 -16 -36 -20
-3 -4 -30 -20 -60 -37 -30 -17 -110 -63 -178 -102 -67 -39 -125 -71 -127 -71
-2 0 -24 -13 -48 -30 -25 -16 -48 -30 -51 -30 -3 0 -35 -18 -71 -40 -36 -22
-69 -40 -74 -40 -5 0 -14 -7 -21 -15 -7 -8 -16 -12 -21 -9 -5 3 -9 1 -9 -3 0
-5 -24 -21 -52 -37 -29 -15 -71 -38 -93 -52 -22 -13 -43 -24 -47 -24 -5 0 -8
49 -8 109 0 89 3 112 18 129 13 16 862 512 1027 601 51 27 60 26 90 -4z m577
-385 c5 0 2 -7 -6 -16 -9 -8 -16 -18 -16 -22 0 -4 -16 -24 -35 -44 -19 -20
-35 -41 -35 -46 0 -5 -10 -17 -21 -28 -12 -10 -32 -35 -44 -54 -13 -19 -39
-52 -59 -73 -20 -20 -36 -40 -37 -45 0 -4 -14 -22 -30 -39 -16 -18 -29 -36
-29 -40 0 -5 -18 -27 -40 -51 -22 -23 -37 -42 -33 -42 4 0 -4 -12 -18 -27 -14
-16 -38 -45 -53 -66 -15 -20 -38 -49 -52 -62 -13 -14 -25 -28 -25 -32 -1 -5
-5 -7 -11 -5 -5 1 -7 -2 -4 -6 3 -5 -4 -18 -15 -28 -12 -10 -25 -27 -31 -37
-9 -17 -7 -17 29 2 21 10 121 67 223 125 101 58 185 104 185 103 1 -1 -1 -26
-4 -54 l-6 -53 -300 -175 c-274 -160 -345 -208 -345 -233 0 -5 -9 -17 -21 -28
-12 -10 -30 -32 -42 -48 l-20 -28 24 12 c13 7 102 58 197 112 95 55 180 102
188 105 11 4 14 -6 14 -45 l0 -50 -287 -167 c-159 -92 -303 -183 -320 -201
-18 -19 -30 -34 -26 -34 4 0 -4 -12 -18 -27 -14 -16 -38 -45 -53 -66 -15 -20
-38 -48 -52 -62 -13 -13 -24 -28 -24 -32 0 -5 -17 -26 -38 -48 -20 -22 -37
-43 -37 -47 0 -3 -15 -22 -32 -42 -18 -19 -33 -39 -33 -43 0 -5 -18 -27 -40
-51 -22 -23 -37 -42 -33 -42 4 0 -5 -12 -19 -27 -13 -16 -35 -42 -47 -60 -15
-22 -85 -69 -232 -154 l-210 -122 -80 -119 c-44 -66 -86 -117 -92 -115 -9 3
-13 157 -15 629 l-2 624 22 21 c22 20 284 172 1308 760 820 471 791 455 808
448 8 -3 18 -5 24 -5z m-846 -64 c-4 -16 -98 -75 -368 -231 -200 -114 -367
-210 -371 -213 -5 -2 -7 15 -5 37 l3 41 370 214 c321 185 370 211 373 194 2
-11 1 -30 -2 -42z m-2082 -248 c23 -32 22 -175 -1 -200 -9 -10 -21 -18 -28
-18 -6 0 -21 -10 -32 -22 -56 -62 -157 -117 -216 -118 -20 0 -114 -47 -123
-61 -3 -5 -10 -7 -15 -4 -5 4 -9 2 -9 -2 0 -5 -24 -21 -52 -36 -29 -16 -91
-51 -138 -78 -47 -28 -103 -61 -125 -73 -22 -13 -64 -37 -93 -55 -29 -17 -55
-31 -58 -31 -3 0 -17 -8 -32 -19 -50 -34 -205 -122 -208 -118 -2 2 -5 54 -6
115 -2 88 0 114 12 125 8 8 177 108 375 222 198 114 382 221 410 239 118 74
272 155 297 156 17 0 33 -8 42 -22z m-274 -427 l0 -39 -352 -203 c-194 -111
-363 -209 -376 -217 -23 -15 -23 -15 -20 28 l3 43 370 213 c203 118 371 214
372 214 2 0 3 -18 3 -39z m720 -211 c20 -20 20 -33 20 -624 0 -373 -4 -607
-10 -611 -5 -3 -49 6 -98 21 l-89 27 -201 -117 c-111 -64 -207 -116 -215 -116
-7 0 -19 6 -26 13 -11 10 -13 10 -7 0 8 -14 -15 -18 -28 -5 -8 7 -21 8 -112
11 -25 0 -43 4 -41 9 3 4 -22 8 -54 9 -33 1 -67 7 -76 15 -12 9 -15 9 -9 1 8
-14 -15 -18 -28 -6 -3 4 -31 8 -60 10 -53 3 -57 1 -342 -162 l-289 -165 -3 47
c-2 29 2 51 10 58 7 7 103 65 213 129 110 64 190 116 179 116 -11 0 -24 3 -28
7 -4 4 -23 8 -43 8 -29 1 -93 -31 -337 -170 l-301 -172 -5 46 c-3 25 -3 49 0
53 3 3 104 64 225 135 188 110 216 128 190 131 -17 2 -37 6 -45 9 -8 3 -49 7
-90 10 -41 2 -77 7 -80 11 -3 4 -34 8 -70 9 -36 2 -72 6 -80 9 -8 4 -49 8 -90
10 -41 2 -82 7 -90 11 -8 3 -23 7 -32 7 -10 1 -19 6 -20 11 -4 17 12 26 842
508 1053 611 1256 727 1278 727 12 0 31 -9 42 -20z m1658 -982 c8 -8 12 -50
12 -125 l0 -113 28 17 c26 17 26 16 -8 -27 -19 -25 -62 -79 -95 -120 -34 -41
-69 -86 -78 -100 -21 -33 -137 -96 -160 -87 -29 11 -32 56 -8 103 18 33 40 52
104 89 l82 48 -4 84 c-5 125 5 171 44 210 34 34 63 41 83 21z m-3138 -1688
c55 -30 40 -100 -22 -100 -61 0 -91 62 -46 94 26 19 42 20 68 6z m5608 -6 c61
-42 -11 -120 -79 -84 -42 23 -10 100 41 100 9 0 26 -7 38 -16z m-4278 -224 l0
-200 -50 0 -50 0 0 200 0 200 50 0 50 0 0 -200z m1150 0 l0 -200 -50 0 c-28 0
-50 5 -50 10 0 6 -14 3 -32 -6 -37 -19 -96 -14 -134 11 -33 21 -64 89 -64 140
0 111 108 187 200 140 l30 -16 0 61 0 60 50 0 50 0 0 -200z m-2909 156 c21
-14 48 -44 59 -66 l20 -40 -57 0 c-42 0 -62 5 -77 19 -60 55 -146 9 -146 -79
0 -37 23 -85 45 -94 34 -13 82 -6 100 14 14 16 31 20 77 20 l58 0 -20 -39
c-56 -111 -230 -133 -317 -39 -72 77 -68 215 10 286 62 57 176 65 248 18z
m3662 23 c50 -13 113 -71 128 -116 6 -19 9 -62 7 -94 -3 -47 -10 -66 -35 -97
l-32 -39 40 -48 c21 -26 39 -49 39 -51 0 -2 -28 -4 -62 -4 -58 0 -64 2 -82 29
-17 25 -28 29 -79 34 -143 13 -227 154 -168 282 43 92 139 133 244 104z m407
-4 c33 -17 50 -43 50 -74 0 -18 -6 -21 -50 -21 -38 0 -50 4 -50 15 0 8 -9 15
-20 15 -34 0 -23 -37 26 -90 49 -52 68 -61 78 -35 4 11 21 15 61 15 l55 0 -27
-55 -27 -55 40 -41 41 -40 48 133 c26 73 57 157 67 186 l19 52 62 0 62 0 65
-181 c36 -99 67 -185 68 -190 2 -5 -22 -9 -53 -9 -53 0 -57 1 -66 30 -11 29
-13 30 -75 30 -63 0 -65 -1 -75 -30 l-11 -30 -117 0 c-74 0 -121 4 -128 11 -9
9 -22 8 -53 -5 -78 -31 -180 -13 -215 38 -8 11 -15 43 -15 70 0 42 4 53 34 81
24 23 32 36 25 46 -12 19 -11 76 1 99 25 46 122 65 180 35z m-3844 -80 c5 -13
9 -13 34 0 52 27 60 21 60 -40 l0 -55 -33 0 c-50 0 -57 -14 -57 -112 l0 -88
-55 0 -55 0 0 155 0 155 50 0 c35 0 52 -4 56 -15z m232 -142 l3 -153 -56 0
-55 0 0 156 0 155 53 -3 52 -3 3 -152z m232 142 c27 -14 30 -14 30 0 0 11 12
15 50 15 l50 0 0 -155 0 -155 -50 0 c-28 0 -50 5 -50 10 0 6 -14 3 -32 -6 -37
-19 -96 -14 -134 11 -33 21 -64 89 -64 140 0 111 108 187 200 140z m520 -21
c15 -16 31 -39 35 -51 6 -22 3 -23 -43 -23 -32 0 -54 5 -62 15 -14 16 -46 20
-54 6 -8 -13 12 -25 76 -45 62 -18 88 -44 88 -86 0 -81 -111 -124 -207 -81
-35 16 -73 61 -73 86 0 3 24 5 54 5 39 0 55 -4 60 -15 6 -16 51 -21 60 -6 9
14 -15 28 -66 41 -79 20 -113 71 -86 127 32 68 162 84 218 27z m263 22 c24
-13 27 -13 27 0 0 12 11 14 53 12 l52 -3 3 -152 3 -153 -56 0 c-31 0 -55 4
-55 10 0 6 -14 3 -32 -6 -59 -30 -142 -4 -173 56 -73 141 49 303 178 236z
m519 3 c14 -8 23 -8 31 0 6 6 33 11 59 11 l48 0 0 -155 0 -155 -55 0 c-30 0
-55 4 -55 9 0 6 -12 3 -27 -5 -60 -30 -134 -5 -173 58 -44 72 -14 198 54 232
37 18 89 20 118 5z m382 -3 c36 -15 66 -50 66 -78 0 -15 -9 -18 -49 -18 -34 0
-51 4 -55 15 -7 20 -56 20 -56 0 0 -9 20 -20 54 -30 79 -23 106 -47 106 -96 0
-80 -100 -124 -194 -85 -34 14 -76 59 -76 82 0 21 106 19 114 -1 8 -22 58 -20
54 2 -2 11 -24 23 -61 34 -32 10 -67 25 -78 35 -22 20 -26 81 -6 107 33 44
118 60 181 33z m811 -6 c51 -25 75 -65 75 -124 l0 -46 -100 0 c-55 0 -100 -4
-100 -8 0 -26 61 -44 75 -22 3 6 33 10 67 10 l60 0 -19 -31 c-43 -75 -132 -99
-213 -57 -55 28 -80 73 -80 144 0 121 120 190 235 134z m1778 6 c24 -13 27
-13 27 0 0 12 11 14 53 12 l52 -3 3 -152 3 -153 -56 0 c-31 0 -55 4 -55 10 0
6 -14 3 -32 -6 -59 -30 -142 -4 -173 56 -73 141 49 303 178 236z m413 -7 c71
-34 103 -125 70 -202 -44 -105 -198 -129 -275 -42 -52 59 -54 147 -4 206 51
60 133 75 209 38z m341 -69 c14 -49 29 -90 32 -90 3 0 18 39 32 88 l26 87 57
3 c44 2 57 0 54 -10 -1 -7 -25 -77 -53 -156 l-50 -142 -66 0 -67 0 -51 148
c-28 81 -51 150 -51 155 0 4 25 7 55 7 l55 0 27 -90z m333 -65 l0 -155 -55 0
-55 0 0 148 c0 82 3 152 7 155 3 4 28 7 55 7 l48 0 0 -155z m160 83 c40 -136
34 -133 67 -28 l29 95 57 3 c31 2 57 -1 56 -5 0 -4 -24 -73 -53 -153 l-52
-145 -66 -3 -65 -3 -52 143 c-28 79 -51 149 -51 156 0 8 18 12 54 12 l54 0 22
-72z m460 50 c99 -51 110 -186 21 -261 -86 -72 -233 -30 -262 75 -39 146 103
256 241 186z m-5640 -882 l0 -134 -65 -1 c-58 -1 -66 2 -81 24 -26 40 -28 95
-4 133 19 31 24 34 65 30 l45 -3 0 42 c0 36 3 43 20 43 19 0 20 -7 20 -134z
m670 0 l0 -134 -64 -1 c-59 -1 -67 2 -85 25 -28 36 -28 102 0 139 19 23 28 26
65 23 l44 -3 0 42 c0 36 3 43 20 43 19 0 20 -7 20 -134z m670 0 l0 -134 -64
-1 c-82 -1 -101 17 -101 94 0 72 23 98 82 93 l43 -3 0 42 c0 36 3 43 20 43 19
0 20 -7 20 -134z m1550 0 l0 -134 -65 -1 c-58 -1 -66 2 -81 24 -26 40 -28 95
-4 133 19 31 24 34 65 30 l45 -3 0 42 c0 36 3 43 20 43 19 0 20 -7 20 -134z
m250 109 c22 -24 22 -25 4 -25 -11 0 -26 6 -33 13 -11 10 -14 10 -18 0 -3 -7
-16 -13 -31 -13 l-25 0 23 25 c13 14 31 25 40 25 9 0 27 -11 40 -25z m-4280 0
c0 -11 -11 -15 -40 -15 l-40 0 0 -115 c0 -108 -1 -115 -20 -115 -19 0 -20 7
-20 115 l0 115 -45 0 c-33 0 -45 4 -45 15 0 12 18 15 105 15 87 0 105 -3 105
-15z m70 -5 c0 -13 -7 -20 -20 -20 -13 0 -20 7 -20 20 0 13 7 20 20 20 13 0
20 -7 20 -20z m1233 -5 c-10 -13 -28 -25 -41 -25 -22 0 -22 1 -6 25 10 15 26
25 41 25 24 0 24 0 6 -25z m302 5 c0 -8 -10 -16 -22 -18 -18 -3 -23 2 -23 18
0 16 5 21 23 18 12 -2 22 -10 22 -18z m2515 0 c0 -13 -7 -20 -19 -20 -22 0
-35 15 -26 30 12 19 45 11 45 -10z m665 0 c0 -8 -10 -16 -22 -18 -18 -3 -23 2
-23 18 0 16 5 21 23 18 12 -2 22 -10 22 -18z m975 -25 c0 -16 6 -25 15 -25 8
0 15 -7 15 -15 0 -8 -7 -15 -15 -15 -12 0 -15 -13 -15 -60 0 -45 4 -62 15 -66
8 -4 15 -13 15 -21 0 -10 -9 -13 -32 -11 l-33 3 -3 78 c-3 69 -5 77 -22 77
-11 0 -20 7 -20 15 0 8 9 15 20 15 15 0 20 7 20 25 0 18 5 25 20 25 15 0 20
-7 20 -25z m-5690 -120 c0 -88 -1 -95 -20 -95 -19 0 -20 7 -20 95 0 88 1 95
20 95 19 0 20 -7 20 -95z m140 74 c0 -12 -7 -19 -18 -19 -31 0 -42 -22 -42
-87 0 -56 -2 -63 -20 -63 -19 0 -20 7 -20 94 l0 94 50 0 c43 1 50 -2 50 -19z
m160 -1 c12 -13 20 -35 20 -55 l0 -33 -65 0 c-62 0 -65 -1 -55 -20 13 -25 55
-36 75 -20 8 7 22 9 31 6 15 -6 15 -8 -1 -26 -20 -22 -83 -27 -114 -10 -46 24
-51 113 -9 157 29 31 89 32 118 1z m272 10 c12 -9 17 -36 20 -94 l5 -81 -68
-1 c-74 -2 -91 9 -91 55 0 34 26 53 75 53 34 0 38 2 35 23 -4 27 -39 35 -58
12 -16 -19 -50 -20 -50 -1 0 38 96 62 132 34z m202 -10 c9 -12 16 -26 16 -30
0 -14 -37 -8 -50 7 -16 19 -55 16 -55 -4 0 -8 18 -20 39 -27 50 -18 66 -32 66
-57 0 -35 -29 -57 -77 -57 -45 0 -83 25 -83 55 0 22 33 18 48 -5 13 -21 38
-26 61 -11 21 13 -1 37 -41 45 -41 8 -58 23 -58 52 0 35 26 54 75 54 34 0 47
-5 59 -22z m386 -53 c0 -61 3 -77 16 -82 35 -13 49 11 52 86 3 63 5 71 22 71
18 0 20 -7 20 -95 l0 -95 -64 0 c-45 0 -67 4 -76 16 -8 8 -15 51 -18 95 l-5
79 27 0 c26 0 26 -1 26 -75z m195 23 c10 -29 21 -57 25 -61 4 -4 15 19 24 52
15 52 20 61 40 61 l24 0 -34 -91 c-19 -51 -34 -93 -34 -95 0 -2 -8 -4 -19 -4
-14 0 -25 20 -50 88 -37 103 -36 102 -12 102 15 0 24 -13 36 -52z m175 -43 c0
-88 -1 -95 -20 -95 -19 0 -20 7 -20 95 0 88 1 95 20 95 19 0 20 -7 20 -95z
m384 79 c11 -11 16 -35 16 -79 0 -35 3 -70 6 -78 4 -13 -7 -15 -65 -16 -61 0
-72 2 -86 21 -20 30 -19 44 5 68 13 13 33 20 60 20 33 0 40 4 40 19 0 10 -7
22 -16 25 -20 8 -54 -2 -54 -15 0 -5 -9 -9 -20 -9 -24 0 -26 17 -3 42 21 23
95 25 117 2z m190 0 c9 -8 16 -22 16 -30 0 -18 -27 -18 -46 1 -19 19 -38 19
-54 0 -13 -16 -16 -14 54 -37 45 -15 60 -43 42 -79 -9 -20 -20 -25 -60 -27
-35 -2 -53 2 -67 14 -25 23 -25 54 1 54 11 0 20 -7 20 -15 0 -16 43 -31 59
-20 23 14 9 35 -29 45 -41 11 -70 33 -70 53 0 7 7 23 16 35 19 27 93 31 118 6z
m478 4 c12 -9 17 -36 20 -94 l5 -81 -68 -1 c-74 -2 -91 9 -91 55 0 34 26 53
75 53 34 0 38 2 35 23 -4 27 -39 35 -58 12 -16 -19 -50 -20 -50 -1 0 38 96 62
132 34z m280 0 c8 -7 18 -21 21 -30 5 -14 1 -18 -17 -18 -13 0 -27 7 -30 16
-8 20 -50 15 -54 -7 -2 -12 9 -20 43 -28 58 -14 77 -47 51 -86 -31 -48 -146
-27 -146 27 0 24 32 23 48 -2 14 -23 44 -26 61 -6 10 12 8 17 -8 25 -11 6 -26
11 -34 11 -20 0 -67 39 -67 56 0 8 9 23 20 34 23 23 87 27 112 8z m98 -49 c0
-68 12 -99 38 -99 32 0 42 22 42 92 0 61 2 68 20 68 19 0 20 -7 20 -94 l0 -95
-67 2 c-61 2 -69 4 -80 27 -7 14 -13 55 -13 93 0 60 2 67 20 67 18 0 20 -7 20
-61z m292 49 c12 -9 17 -36 20 -94 l5 -81 -68 -1 c-74 -2 -91 9 -91 55 0 34
26 53 75 53 34 0 38 2 35 23 -4 27 -39 35 -58 12 -16 -19 -50 -20 -50 -1 0 38
96 62 132 34z m289 -5 c8 -9 16 -50 19 -94 l5 -77 -67 -1 c-74 -1 -98 13 -98
54 0 31 35 55 82 55 25 0 38 5 38 13 0 33 -55 51 -66 22 -6 -15 -54 -22 -54
-8 0 4 10 17 22 30 27 28 98 32 119 6z m99 -52 c0 -80 14 -101 55 -83 23 11
25 17 25 82 0 63 2 70 20 70 19 0 20 -7 20 -94 l0 -94 -62 -1 c-88 -1 -98 11
-98 111 0 71 2 78 20 78 18 0 20 -7 20 -69z m410 -26 c0 -88 -1 -95 -20 -95
-19 0 -20 7 -20 95 0 88 1 95 20 95 19 0 20 -7 20 -95z m180 73 c12 -13 20
-35 20 -55 l0 -33 -65 0 c-62 0 -65 -1 -55 -20 13 -25 55 -36 75 -20 8 7 22 9
31 6 15 -6 15 -8 -1 -26 -20 -22 -83 -27 -114 -10 -46 24 -51 113 -9 157 29
31 89 32 118 1z m195 0 c10 -15 15 -46 15 -95 0 -66 -2 -73 -20 -73 -18 0 -20
7 -20 68 0 66 -10 92 -36 92 -30 0 -44 -31 -44 -96 0 -57 -2 -64 -20 -64 -19
0 -20 7 -20 94 l0 94 65 1 c55 1 66 -2 80 -21z m195 2 c11 -11 20 -27 20 -35
0 -22 -33 -18 -48 5 -7 11 -21 20 -32 20 -22 0 -50 -36 -50 -65 0 -29 28 -65
50 -65 11 0 25 9 32 20 15 23 48 27 48 5 0 -41 -72 -69 -125 -49 -21 8 -45 56
-45 89 0 31 24 81 42 88 32 13 89 6 108 -13z m90 -75 c0 -88 -1 -95 -20 -95
-19 0 -20 7 -20 95 0 88 1 95 20 95 19 0 20 -7 20 -95z m181 78 c8 -9 16 -50
19 -94 l5 -77 -67 -1 c-74 -1 -98 13 -98 54 0 31 35 55 82 55 25 0 38 5 38 13
0 33 -55 51 -66 22 -6 -15 -54 -22 -54 -8 0 4 10 17 22 30 27 28 98 32 119 6z
m289 -5 c12 -13 20 -35 20 -55 l0 -33 -65 0 c-62 0 -65 -1 -55 -20 13 -25 55
-36 75 -20 8 7 22 9 31 6 15 -6 15 -8 -1 -26 -20 -22 -83 -27 -114 -10 -46 24
-51 113 -9 157 29 31 89 32 118 1z m185 12 c4 -7 13 -6 26 1 11 5 36 9 57 7
47 -4 62 -31 62 -120 0 -66 -1 -68 -25 -68 -24 0 -25 2 -25 75 0 61 -3 77 -16
82 -35 13 -49 -11 -52 -86 -3 -62 -5 -71 -22 -71 -17 0 -19 9 -22 71 -2 55 -7
74 -20 83 -13 8 -23 8 -35 0 -14 -9 -19 -28 -21 -83 -3 -63 -5 -71 -22 -71
-18 0 -20 7 -20 94 l0 94 64 1 c36 0 68 -4 71 -9z m529 -12 c7 -13 16 -38 20
-55 l6 -33 -65 0 c-67 0 -77 -7 -48 -35 15 -16 28 -16 81 0 16 6 22 3 22 -8 0
-40 -99 -51 -137 -15 -31 29 -32 104 -2 142 28 36 101 38 123 4z m192 11 c8
-7 14 -7 19 1 10 16 76 12 97 -7 14 -13 18 -31 18 -95 0 -71 -2 -78 -20 -78
-18 0 -20 7 -20 68 0 66 -10 92 -36 92 -30 0 -44 -31 -44 -96 0 -57 -2 -64
-20 -64 -18 0 -20 7 -20 68 0 66 -10 92 -36 92 -30 0 -44 -31 -44 -96 0 -57
-2 -64 -20 -64 -19 0 -20 7 -20 94 l0 93 67 1 c37 1 72 -3 79 -9z m323 -15
c28 -36 28 -102 0 -139 -19 -23 -28 -26 -65 -23 l-44 3 0 -37 c0 -31 -4 -38
-20 -38 -19 0 -20 7 -20 129 l0 129 64 1 c59 1 67 -2 85 -25z m200 0 c14 -18
21 -41 21 -69 0 -60 -29 -95 -80 -95 -52 0 -68 8 -85 41 -20 37 -19 79 2 109
24 35 33 40 80 40 33 0 46 -5 62 -26z m131 -59 c0 -11 -12 -15 -45 -15 -33 0
-45 4 -45 15 0 11 12 15 45 15 33 0 45 -4 45 -15z m-6450 -450 c0 -128 -1
-135 -20 -135 -19 0 -20 7 -20 135 0 128 1 135 20 135 19 0 20 -7 20 -135z
m-450 35 c0 -13 -8 -20 -27 -22 -27 -3 -28 -5 -31 -75 -3 -65 -5 -73 -22 -73
-18 0 -20 7 -20 94 l0 94 50 0 c42 1 50 -2 50 -18z m159 -6 c12 -15 21 -40 21
-55 0 -29 0 -29 -66 -29 l-66 0 14 -22 c18 -27 53 -35 73 -18 8 7 22 9 31 6
15 -6 15 -8 -1 -26 -22 -25 -90 -27 -122 -5 -25 17 -39 71 -29 110 17 67 105
90 145 39z m183 14 c12 -9 17 -36 20 -94 l5 -81 -68 -1 c-74 -2 -91 9 -91 55
0 34 26 53 75 53 34 0 38 2 35 23 -4 27 -39 35 -58 12 -16 -19 -50 -20 -50 -1
0 38 96 62 132 34z"/>
<path d="M4074 5471 c-75 -46 -124 -141 -124 -241 0 -186 183 -125 235 77 19
72 8 138 -26 166 -27 22 -46 22 -85 -2z"/>
<path d="M4226 2858 c-34 -48 -3 -123 46 -116 31 5 62 51 54 81 -14 57 -71 76
-100 35z"/>
<path d="M5080 2948 c-71 -38 -64 -171 11 -197 23 -8 38 -7 64 3 42 18 55 42
55 100 0 77 -68 126 -130 94z"/>
<path d="M5951 2877 c-6 -15 -14 -39 -17 -52 -6 -23 -3 -25 30 -25 20 0 36 1
36 3 0 1 -9 25 -19 52 l-19 50 -11 -28z"/>
<path d="M5460 2805 c-16 -20 -5 -62 19 -70 21 -6 71 3 71 14 0 8 -63 71 -72
71 -3 0 -11 -7 -18 -15z"/>
<path d="M2136 2858 c-34 -48 -3 -123 46 -116 31 5 62 51 54 81 -14 57 -71 76
-100 35z"/>
<path d="M2920 2860 c-23 -23 -25 -48 -8 -84 21 -48 77 -46 98 3 29 71 -38
133 -90 81z"/>
<path d="M3447 2862 c-23 -25 -22 -85 1 -105 41 -37 92 -7 92 55 0 59 -57 90
-93 50z"/>
<path d="M4598 2879 c-36 -21 -21 -39 32 -39 47 0 50 2 41 19 -16 30 -44 37
-73 20z"/>
<path d="M6410 2860 c-23 -23 -25 -48 -8 -84 21 -48 77 -46 98 3 29 71 -38
133 -90 81z"/>
<path d="M6776 2858 c-32 -46 -8 -118 39 -118 28 0 55 34 55 70 0 36 -27 70
-55 70 -13 0 -31 -10 -39 -22z"/>
<path d="M8066 2858 c-47 -66 25 -158 77 -100 10 10 17 34 17 54 0 61 -62 92
-94 46z"/>
<path d="M2445 2076 c-37 -27 -18 -116 24 -116 28 0 41 21 41 65 0 60 -26 80
-65 51z"/>
<path d="M3107 2072 c-32 -35 -11 -112 31 -112 41 0 60 100 23 120 -27 14 -35
13 -54 -8z"/>
<path d="M3776 2068 c-9 -12 -16 -32 -16 -43 0 -48 49 -82 78 -53 16 16 16 90
0 106 -19 19 -45 14 -62 -10z"/>
<path d="M5335 2076 c-37 -27 -18 -116 24 -116 28 0 41 21 41 65 0 60 -26 80
-65 51z"/>
<path d="M1692 2078 c-24 -24 -13 -38 28 -38 26 0 40 5 40 13 0 18 -21 37 -40
37 -9 0 -21 -5 -28 -12z"/>
<path d="M1963 1994 c-3 -8 -1 -20 5 -26 15 -15 62 6 62 27 0 21 -59 20 -67
-1z"/>
<path d="M3301 1996 c-9 -10 -8 -16 4 -26 19 -16 65 1 65 25 0 19 -53 20 -69
1z"/>
<path d="M3973 1994 c-3 -8 -1 -20 5 -26 15 -15 62 6 62 27 0 21 -59 20 -67
-1z"/>
<path d="M4643 1994 c-3 -8 -1 -20 5 -26 15 -15 62 6 62 27 0 21 -59 20 -67
-1z"/>
<path d="M4924 1999 c-3 -6 1 -18 9 -27 13 -13 21 -13 42 -4 38 17 32 42 -9
42 -19 0 -38 -5 -42 -11z"/>
<path d="M5622 2078 c-24 -24 -13 -38 28 -38 26 0 40 5 40 13 0 18 -21 37 -40
37 -9 0 -21 -5 -28 -12z"/>
<path d="M6274 1999 c-3 -6 1 -18 9 -27 13 -13 21 -13 42 -4 38 17 32 42 -9
42 -19 0 -38 -5 -42 -11z"/>
<path d="M6572 2078 c-24 -24 -13 -38 28 -38 26 0 40 5 40 13 0 18 -21 37 -40
37 -9 0 -21 -5 -28 -12z"/>
<path d="M7286 2074 c-25 -25 -19 -34 24 -34 41 0 52 14 28 38 -16 16 -33 15
-52 -4z"/>
<path d="M7797 2077 c-24 -17 -20 -95 6 -111 40 -25 83 44 56 92 -17 32 -37
38 -62 19z"/>
<path d="M7995 2076 c-13 -9 -19 -26 -19 -51 0 -55 44 -83 78 -49 32 31 12
114 -28 114 -7 0 -21 -6 -31 -14z"/>
<path d="M1385 1588 c-15 -23 -15 -23 26 -26 49 -4 54 0 39 27 -14 27 -45 27
-65 -1z"/>
<path d="M1573 1514 c-3 -8 -1 -20 5 -26 15 -15 62 6 62 27 0 21 -59 20 -67
-1z"/>
<path d="M14541 8238 c-29 -30 -31 -37 -31 -105 0 -71 1 -73 25 -73 24 0 25 3
25 59 0 52 3 62 26 80 26 21 36 21 490 21 259 0 473 -4 487 -9 13 -5 27 -17
30 -25 4 -9 7 -129 7 -267 1 -239 2 -250 19 -235 10 9 21 13 26 9 4 -5 5 -3 1
4 -3 6 -2 14 3 17 11 7 15 413 5 464 -4 18 -20 46 -36 63 l-30 29 -508 0 -508
0 -31 -32z m1109 -511 c0 -2 -10 -12 -22 -23 l-23 -19 19 23 c18 21 26 27 26
19z"/>
<path d="M13320 7850 l0 -160 35 0 35 0 0 160 0 160 -35 0 -35 0 0 -160z"/>
<path d="M15161 7888 c-12 -62 -24 -121 -27 -130 -4 -15 10 -18 36 -8 3 1 8 2
13 1 4 0 7 4 7 10 0 6 6 9 14 6 8 -3 17 -3 21 1 4 4 11 8 16 8 5 1 11 3 14 4
3 1 10 3 17 4 7 0 15 11 18 23 3 12 29 41 59 65 l53 43 -37 3 c-31 3 -44 -3
-91 -44 -30 -25 -57 -44 -60 -42 -2 3 2 37 11 77 19 93 20 91 -14 91 -28 0
-28 -1 -50 -112z"/>
<path d="M13690 7940 c0 -20 -5 -30 -15 -30 -9 0 -15 -9 -15 -25 0 -14 6 -25
14 -25 9 0 15 -20 19 -67 4 -53 10 -71 27 -85 23 -19 95 -25 104 -9 11 18 -6
40 -32 43 -25 3 -27 7 -30 60 -3 55 -2 57 25 60 20 2 29 9 31 26 3 19 -1 22
-27 22 -28 0 -31 3 -31 30 0 28 -3 30 -35 30 -32 0 -35 -2 -35 -30z"/>
<path d="M13485 7911 c-36 -15 -58 -49 -63 -99 -4 -44 -1 -53 25 -82 25 -28
38 -34 86 -38 43 -3 63 0 83 13 24 16 25 17 9 35 -13 15 -22 17 -36 10 -41
-22 -99 -6 -99 27 0 10 22 13 86 13 l86 0 -7 32 c-11 46 -25 66 -61 83 -35 16
-77 18 -109 6z m93 -53 c26 -26 13 -38 -43 -38 -57 0 -66 8 -39 34 18 19 65
21 82 4z"/>
<path d="M13860 7805 l0 -115 30 0 30 0 0 74 c0 47 5 77 13 83 27 21 48 22 67
3 16 -16 20 -34 20 -90 l0 -70 30 0 30 0 0 68 c0 40 5 75 13 84 21 26 46 29
67 8 16 -16 20 -34 20 -90 l0 -70 30 0 30 0 0 84 c0 100 -4 112 -41 131 -36
19 -79 19 -107 0 -19 -14 -24 -14 -51 0 -36 18 -82 20 -100 3 -11 -10 -14 -10
-18 0 -3 6 -18 12 -34 12 l-29 0 0 -115z"/>
<path d="M14315 7887 c-49 -49 -51 -114 -5 -161 37 -37 124 -49 166 -21 24 16
25 17 9 35 -13 15 -22 17 -36 10 -29 -16 -75 -12 -92 8 -10 10 -17 22 -17 25
0 4 38 7 84 7 47 0 87 3 89 8 8 15 -13 69 -37 91 -17 16 -41 25 -75 29 -47 4
-53 2 -86 -31z m123 -29 c26 -26 13 -38 -43 -38 -41 0 -55 4 -55 15 0 30 73
48 98 23z"/>
<path d="M14714 7910 c-11 -4 -33 -22 -47 -40 -21 -24 -27 -42 -27 -79 0 -86
65 -123 154 -86 14 6 17 5 12 -3 -5 -8 3 -12 23 -12 17 0 31 2 31 4 0 2 9 48
20 101 26 126 26 125 -10 125 -20 0 -30 -5 -30 -15 0 -19 -9 -19 -34 0 -22 16
-59 18 -92 5z m87 -50 c28 -16 27 -84 -3 -104 -27 -19 -69 -21 -86 -4 -19 19
-14 76 8 98 22 22 51 26 81 10z"/>
<path d="M14984 7910 c-42 -13 -56 -32 -52 -72 3 -31 7 -34 61 -52 62 -20 69
-29 36 -47 -16 -8 -33 -8 -67 1 -44 11 -61 5 -62 -23 0 -24 90 -33 119 -12 12
8 13 7 6 -5 -6 -11 -4 -11 11 2 10 9 24 17 29 19 27 5 35 13 35 39 0 34 -15
47 -71 63 -23 7 -44 18 -47 25 -6 18 37 30 78 21 28 -7 38 -5 48 8 6 9 9 20 4
25 -13 13 -95 18 -128 8z"/>
<path d="M14510 7516 c0 -36 6 -50 29 -74 17 -16 44 -32 62 -36 17 -3 154 -6
304 -6 258 0 273 -1 290 -20 10 -11 23 -16 29 -12 6 3 14 7 18 7 20 0 15 17
-15 49 l-34 36 -297 0 c-283 0 -297 1 -316 20 -11 11 -20 33 -20 50 0 25 -4
30 -25 30 -23 0 -25 -4 -25 -44z m736 -128 c4 -7 4 -10 -1 -6 -4 4 -15 2 -24
-5 -14 -11 -14 -10 -2 6 16 20 18 21 27 5z"/>
<path d="M15363 7483 c0 -9 4 -10 14 -2 7 6 13 12 13 14 0 1 -6 2 -13 2 -8 0
-14 -6 -14 -14z"/>
<path d="M12170 6192 c-66 -32 -70 -53 -70 -357 0 -304 4 -325 70 -357 33 -17
165 -18 2330 -18 2165 0 2297 1 2330 18 66 32 70 53 70 357 0 304 -4 325 -70
357 -33 17 -165 18 -2330 18 -2165 0 -2297 -1 -2330 -18z m1135 -206 l28 -18
-29 -29 c-27 -26 -32 -28 -60 -17 -55 20 -116 -11 -130 -67 -25 -99 96 -165
169 -92 l22 22 -47 3 -48 3 0 40 0 39 90 0 90 0 0 -40 c0 -163 -201 -243 -312
-124 -82 88 -61 217 47 286 38 24 138 21 180 -6z m453 -84 c2 -7 -6 -12 -17
-12 -21 0 -27 11 -14 24 9 9 26 2 31 -12z m792 -67 c0 -60 -3 -75 -15 -75 -12
0 -15 15 -15 75 0 60 3 75 15 75 12 0 15 -15 15 -75z m1290 0 c0 -60 -3 -75
-15 -75 -12 0 -15 15 -15 75 0 60 3 75 15 75 12 0 15 -15 15 -75z m-2212 53
c30 -30 3 -51 -29 -23 -15 14 -18 14 -33 0 -9 -9 -16 -25 -16 -35 0 -10 7 -26
16 -35 15 -14 18 -14 33 0 21 18 41 20 41 2 0 -37 -68 -51 -102 -20 -23 20
-24 80 -1 105 18 20 73 24 91 6z m1810 0 c30 -30 3 -51 -29 -23 -15 14 -18 14
-33 0 -9 -9 -16 -25 -16 -35 0 -22 28 -52 43 -47 18 6 20 27 3 27 -9 0 -16 5
-16 10 0 6 14 10 31 10 28 0 30 -2 27 -32 -3 -30 -6 -33 -41 -36 -50 -4 -77
19 -77 66 0 20 7 44 17 54 18 20 73 24 91 6z m-1678 -73 c0 -48 -2 -55 -20
-55 -17 0 -20 7 -20 40 0 29 -4 40 -15 40 -11 0 -15 -11 -15 -40 0 -33 -3 -40
-20 -40 -18 0 -20 7 -20 55 l0 55 55 0 55 0 0 -55z m98 43 c7 -7 12 -20 12
-30 0 -14 -8 -18 -36 -18 -31 0 -35 -2 -24 -15 9 -11 17 -12 30 -5 20 11 36
-2 25 -20 -9 -14 -68 -13 -83 2 -7 7 -12 26 -12 43 0 38 16 55 50 55 14 0 31
-5 38 -12z m159 -3 c8 -23 -5 -31 -26 -18 -11 7 -22 9 -25 6 -4 -4 8 -13 25
-20 23 -10 30 -18 27 -35 -3 -20 -9 -23 -43 -23 -30 0 -41 4 -43 18 -2 10 3
17 12 17 9 0 16 -4 16 -10 0 -5 7 -10 15 -10 25 0 17 15 -15 27 -28 11 -40 39
-23 56 13 14 74 7 80 -8z m53 -31 c0 -59 24 -55 28 4 2 29 8 42 18 42 10 0 14
-14 14 -56 l0 -55 -42 3 -43 3 -3 53 c-2 42 0 52 12 52 12 0 16 -11 16 -46z
m158 34 c7 -7 12 -31 12 -55 l0 -43 -39 0 c-68 0 -83 60 -17 68 14 2 24 8 21
13 -4 5 -17 6 -31 3 -23 -6 -32 5 -17 19 11 11 58 8 71 -5z m159 -5 c4 -9 1
-19 -5 -21 -8 -2 -8 -8 0 -21 6 -10 8 -26 5 -35 -8 -22 -75 -22 -84 -1 -8 23
5 31 27 17 23 -14 30 -15 30 -3 0 5 -11 12 -25 15 -31 8 -42 31 -25 51 17 21
69 19 77 -2z m101 5 c7 -7 12 -31 12 -55 l0 -43 -39 0 c-68 0 -83 60 -17 68
14 2 24 8 21 13 -4 5 -17 6 -31 3 -23 -6 -32 5 -17 19 11 11 58 8 71 -5z m160
0 c7 -7 12 -31 12 -55 l0 -43 -39 0 c-68 0 -83 60 -17 68 14 2 24 8 21 13 -4
5 -17 6 -31 3 -23 -6 -32 5 -17 19 11 11 58 8 71 -5z m162 -3 c18 -21 4 -32
-21 -17 -25 16 -39 8 -39 -23 0 -31 14 -39 39 -23 25 15 39 4 21 -17 -15 -18
-61 -20 -78 -3 -7 7 -12 26 -12 43 0 17 5 36 12 43 17 17 63 15 78 -3z m112
-10 c8 -18 9 -35 2 -53 -8 -22 -15 -27 -44 -27 -27 0 -38 6 -49 26 -13 24 -13
29 2 53 24 36 73 36 89 1z m176 -32 c2 -42 0 -53 -12 -53 -10 0 -16 13 -18 43
-2 23 -7 42 -13 42 -5 0 -11 -19 -13 -42 -4 -58 -30 -59 -34 -1 -4 59 -28 63
-28 4 0 -39 -3 -46 -20 -46 -18 0 -20 7 -20 55 l0 56 78 -3 77 -3 3 -52z m164
32 c8 -18 9 -35 2 -53 -8 -23 -15 -27 -49 -27 -34 0 -41 4 -49 27 -16 44 6 78
49 78 28 0 38 -5 47 -25z m300 0 c8 -18 9 -35 2 -53 -8 -23 -15 -27 -49 -27
-34 0 -41 4 -49 27 -16 44 6 78 49 78 28 0 38 -5 47 -25z m106 13 c7 -7 12
-26 12 -43 0 -38 -16 -55 -50 -55 -34 0 -50 17 -50 55 0 38 16 55 50 55 14 0
31 -5 38 -12z m122 -51 c0 -36 -5 -68 -12 -75 -14 -14 -57 -16 -77 -3 -18 12
3 24 28 16 11 -3 22 -1 26 5 4 6 -4 10 -17 10 -32 0 -48 18 -48 55 0 41 16 55
62 55 l38 0 0 -63z m160 37 c14 -35 14 -34 -25 -34 -19 0 -35 -4 -35 -9 0 -17
20 -23 35 -11 16 14 33 -6 17 -22 -18 -18 -66 -4 -81 23 -13 24 -13 29 2 53
24 36 73 37 87 0z"/>
<path d="M13805 5840 c-3 -5 3 -10 15 -10 12 0 18 5 15 10 -3 6 -10 10 -15 10
-5 0 -12 -4 -15 -10z"/>
<path d="M14180 5794 c0 -14 3 -14 15 -4 8 7 15 14 15 16 0 2 -7 4 -15 4 -8 0
-15 -7 -15 -16z"/>
<path d="M14335 5840 c-3 -5 1 -10 9 -10 9 0 16 5 16 10 0 6 -4 10 -9 10 -6 0
-13 -4 -16 -10z"/>
<path d="M14440 5794 c0 -14 3 -14 15 -4 8 7 15 14 15 16 0 2 -7 4 -15 4 -8 0
-15 -7 -15 -16z"/>
<path d="M14600 5794 c0 -14 3 -14 15 -4 8 7 15 14 15 16 0 2 -7 4 -15 4 -8 0
-15 -7 -15 -16z"/>
<path d="M14865 5837 c-15 -38 9 -66 29 -35 8 14 7 21 -6 35 -16 15 -18 15
-23 0z"/>
<path d="M15200 5835 c-9 -11 -11 -22 -4 -32 13 -21 25 -21 38 -1 8 14 7 21
-5 33 -14 15 -17 15 -29 0z"/>
<path d="M15500 5835 c-9 -11 -11 -22 -4 -32 13 -21 25 -21 38 -1 8 14 7 21
-5 33 -14 15 -17 15 -29 0z"/>
<path d="M15614 5836 c-9 -23 0 -51 16 -51 10 0 15 10 15 29 0 32 -21 47 -31
22z"/>
<path d="M15732 5838 c-16 -16 -15 -45 2 -51 18 -7 26 1 26 29 0 28 -13 37
-28 22z"/>
<path d="M15895 5840 c-3 -5 1 -10 10 -10 9 0 13 5 10 10 -3 6 -8 10 -10 10
-2 0 -7 -4 -10 -10z"/>
<path d="M13379 3923 c-1 -16 0 -44 1 -64 1 -26 -4 -38 -16 -43 -42 -16 -61
51 -22 78 25 18 17 21 -13 6 -20 -11 -26 -54 -10 -79 5 -8 23 -15 40 -16 l31
-2 0 74 c0 40 -2 73 -5 73 -3 0 -5 -12 -6 -27z"/>
<path d="M13820 3924 c0 -21 -3 -24 -20 -19 -29 9 -50 -12 -50 -50 0 -39 15
-54 52 -52 28 2 28 2 28 75 0 39 -2 72 -5 72 -3 0 -5 -12 -5 -26z m-16 -30
c25 -9 21 -71 -4 -79 -11 -3 -24 -3 -30 0 -14 9 -12 72 3 78 6 3 13 6 14 6 1
1 8 -2 17 -5z"/>
<path d="M14233 3875 c0 -44 2 -61 4 -37 2 23 2 59 0 80 -2 20 -4 1 -4 -43z"/>
<path d="M12370 3870 c0 -67 1 -70 24 -70 57 0 94 80 53 116 -9 8 -12 9 -7 2
18 -22 12 -86 -9 -98 -42 -22 -51 -14 -51 49 0 54 2 60 23 64 19 4 18 4 -5 6
l-28 1 0 -70z"/>
<path d="M12721 3928 c-1 -10 -7 -18 -13 -18 -10 0 -10 -2 -1 -8 6 -4 13 -27
15 -51 2 -26 8 -46 16 -47 7 -1 8 0 2 3 -15 7 -13 93 3 93 8 0 9 3 1 8 -6 4
-14 14 -17 22 -4 12 -6 11 -6 -2z"/>
<path d="M12503 3855 c0 -33 2 -45 4 -27 2 18 2 45 0 60 -2 15 -4 0 -4 -33z"/>
<path d="M12553 3884 c-15 -23 -15 -29 -2 -52 8 -14 20 -27 28 -30 7 -2 4 5
-8 17 -26 26 -27 45 -1 71 11 11 16 20 10 20 -5 0 -17 -12 -27 -26z"/>
<path d="M12663 3855 c0 -33 2 -45 4 -27 2 18 2 45 0 60 -2 15 -4 0 -4 -33z"/>
<path d="M12789 3893 c-13 -16 -12 -17 3 -4 19 14 48 9 48 -9 0 -5 -16 -10
-35 -10 -27 0 -35 -4 -35 -18 0 -11 9 -27 20 -37 16 -15 24 -16 42 -7 22 11
22 11 -4 6 -20 -4 -29 -1 -37 14 -16 30 -14 32 24 32 36 0 46 15 23 38 -17 17
-33 15 -49 -5z"/>
<path d="M12948 3899 c-18 -10 -26 -73 -10 -83 4 -2 6 12 4 33 -3 31 0 39 20
48 12 7 19 12 13 12 -5 0 -18 -4 -27 -10z"/>
<path d="M13110 3900 c-8 -5 -10 -10 -5 -10 6 0 17 5 25 10 8 5 11 10 5 10 -5
0 -17 -5 -25 -10z"/>
<path d="M13248 3894 c12 -8 22 -26 22 -39 0 -13 -10 -31 -22 -39 -12 -9 -17
-16 -11 -16 19 0 43 30 43 55 0 25 -24 55 -43 55 -6 0 -1 -7 11 -16z"/>
<path d="M13433 3855 c0 -33 2 -45 4 -27 2 18 2 45 0 60 -2 15 -4 0 -4 -33z"/>
<path d="M13486 3894 c-34 -33 -6 -102 35 -89 13 4 19 2 19 -9 0 -8 -9 -18
-21 -21 -11 -4 -18 -9 -16 -12 3 -2 15 0 26 7 18 9 21 20 21 77 0 36 -3 63 -7
59 -4 -4 -6 -24 -4 -45 2 -29 -2 -40 -15 -45 -42 -16 -61 51 -22 78 12 9 17
16 11 16 -6 0 -19 -7 -27 -16z"/>
<path d="M13599 3893 c-13 -15 -12 -15 8 -3 27 17 53 0 53 -35 0 -35 -26 -52
-53 -35 -20 12 -21 12 -8 -3 18 -22 34 -21 54 1 22 24 21 55 -1 75 -23 21 -36
21 -53 0z"/>
<path d="M14030 3895 c-15 -17 -6 -33 26 -45 13 -5 24 -14 24 -20 0 -18 -29
-23 -48 -9 -16 12 -16 12 -1 -5 11 -12 24 -16 38 -11 31 10 26 41 -9 54 -16 5
-30 15 -30 21 0 18 29 23 48 9 15 -13 16 -12 3 4 -16 21 -35 22 -51 2z"/>
<path d="M14323 3899 c9 -5 17 -14 17 -19 0 -5 -8 -11 -17 -13 -17 -4 -17 -5
0 -6 22 -1 23 -37 1 -45 -22 -9 -37 3 -31 25 3 11 1 17 -4 13 -12 -7 -11 -44
1 -45 63 -8 65 -6 61 41 -3 43 -14 60 -36 60 -5 -1 -2 -5 8 -11z"/>
<path d="M12605 3838 l0 -63 -30 2 c-28 1 -29 1 -8 -9 37 -18 53 5 53 73 0 33
-3 59 -7 59 -5 0 -8 -28 -8 -62z"/>
<path d="M12995 3855 c0 -24 3 -41 8 -38 4 2 7 19 7 38 0 19 -3 36 -7 38 -5 3
-8 -14 -8 -38z"/>
<path d="M13200 3881 c-13 -26 -13 -34 5 -57 14 -18 15 -17 4 7 -8 20 -8 32 0
48 7 11 9 21 7 21 -3 0 -10 -9 -16 -19z"/>
<path d="M13092 3855 c0 -16 2 -22 5 -12 2 9 2 23 0 30 -3 6 -5 -1 -5 -18z"/>
<path d="M13581 3854 c0 -11 3 -14 6 -6 3 7 2 16 -1 19 -3 4 -6 -2 -5 -13z"/>
<path d="M13898 3863 c6 -2 18 -2 25 0 6 3 1 5 -13 5 -14 0 -19 -2 -12 -5z"/>
<path d="M14158 3863 c6 -2 18 -2 25 0 6 3 1 5 -13 5 -14 0 -19 -2 -12 -5z"/>
<path d="M13864 3845 c-7 -17 12 -45 29 -45 6 0 2 6 -8 14 -11 8 -16 19 -12
30 4 9 4 16 1 16 -2 0 -7 -7 -10 -15z"/>
<path d="M14124 3845 c-7 -17 12 -45 29 -45 6 0 2 6 -8 14 -11 8 -16 19 -12
30 4 9 4 16 1 16 -2 0 -7 -7 -10 -15z"/>
<path d="M13916 3821 c-3 -5 1 -11 9 -15 8 -3 15 -1 15 4 0 13 -18 22 -24 11z"/>
<path d="M14176 3821 c-3 -5 1 -11 9 -15 8 -3 15 -1 15 4 0 13 -18 22 -24 11z"/>
<path d="M13110 3810 c8 -5 20 -10 25 -10 6 0 3 5 -5 10 -8 5 -19 10 -25 10
-5 0 -3 -5 5 -10z"/>
<path d="M12170 3242 c-66 -32 -70 -53 -70 -357 0 -304 4 -325 70 -357 33 -17
165 -18 2330 -18 2165 0 2297 1 2330 18 66 32 70 53 70 357 0 304 -4 325 -70
357 -33 17 -165 18 -2330 18 -2165 0 -2297 -1 -2330 -18z m2870 -357 c0 -78
-2 -85 -20 -85 -18 0 -20 7 -20 85 0 78 2 85 20 85 18 0 20 -7 20 -85z m-1090
60 c0 -11 -11 -15 -40 -15 -33 0 -40 -3 -40 -20 0 -16 7 -20 35 -20 24 0 35
-5 35 -15 0 -10 -11 -15 -35 -15 -24 0 -35 -5 -35 -15 0 -11 11 -15 40 -15 29
0 40 -4 40 -15 0 -12 -13 -15 -55 -15 l-55 0 0 80 0 80 55 0 c42 0 55 -3 55
-15z m170 -9 c0 -8 6 -17 13 -20 10 -5 10 -7 0 -12 -15 -7 -18 -74 -3 -74 6 0
10 -7 10 -15 0 -9 -9 -15 -25 -15 -23 0 -25 3 -25 49 0 30 -5 52 -12 55 -10 5
-10 7 0 12 6 3 12 12 12 20 0 8 7 14 15 14 8 0 15 -6 15 -14z m-62 -78 c2 -47
0 -58 -13 -58 -11 0 -15 11 -15 45 0 38 -3 45 -20 45 -17 0 -20 -7 -20 -45 0
-33 -4 -45 -15 -45 -12 0 -15 13 -15 61 l0 60 48 -3 47 -3 3 -57z m162 47 c0
-8 -7 -15 -15 -15 -11 0 -15 -12 -15 -45 0 -38 -3 -45 -20 -45 -18 0 -20 7
-20 60 l0 60 35 0 c24 0 35 -5 35 -15z m98 3 c7 -7 12 -34 12 -60 l0 -48 -44
0 c-52 0 -73 18 -56 49 6 13 21 21 35 21 14 0 25 4 25 8 0 17 -13 21 -31 9
-21 -13 -34 -5 -26 18 8 18 67 21 85 3z m92 -3 c0 -8 -7 -15 -15 -15 -11 0
-15 -12 -15 -45 0 -38 -3 -45 -20 -45 -18 0 -20 7 -20 60 l0 60 35 0 c24 0 35
-5 35 -15z m168 -47 c2 -47 0 -58 -13 -58 -11 0 -15 11 -15 45 0 38 -3 45 -20
45 -17 0 -20 -7 -20 -45 0 -33 -4 -45 -15 -45 -12 0 -15 13 -15 61 l0 60 48
-3 47 -3 3 -57z m110 50 c7 -7 12 -34 12 -60 l0 -48 -44 0 c-52 0 -73 18 -56
49 6 13 21 21 35 21 14 0 25 4 25 8 0 17 -13 21 -31 9 -21 -13 -34 -5 -26 18
8 18 67 21 85 3z m179 -3 c8 -23 -5 -31 -27 -17 -10 6 -22 8 -25 3 -3 -5 9
-14 26 -20 25 -9 30 -15 27 -38 -3 -24 -8 -28 -39 -31 -23 -2 -40 2 -49 13
-18 21 -4 32 22 16 13 -8 24 -9 30 -3 6 6 -2 13 -21 20 -36 13 -49 36 -31 57
17 20 79 20 87 0z m108 3 c2 -7 5 -34 8 -60 l5 -48 -49 0 c-39 0 -49 4 -54 20
-9 27 11 50 41 50 13 0 24 4 24 9 0 15 -18 23 -25 11 -7 -12 -45 -14 -45 -2 0
29 86 47 95 20z m179 -4 c3 -9 6 -36 6 -60 l0 -45 -47 3 c-46 3 -48 4 -48 33
0 25 4 30 28 33 15 2 27 8 27 13 0 7 -12 8 -30 4 -31 -7 -39 2 -18 23 18 18
75 15 82 -4z"/>
<path d="M14265 2840 c-3 -5 1 -10 9 -10 9 0 16 5 16 10 0 6 -4 10 -9 10 -6 0
-13 -4 -16 -10z"/>
<path d="M14635 2840 c-3 -5 1 -10 9 -10 9 0 16 5 16 10 0 6 -4 10 -9 10 -6 0
-13 -4 -16 -10z"/>
<path d="M14920 2840 c0 -5 7 -10 15 -10 8 0 15 5 15 10 0 6 -7 10 -15 10 -8
0 -15 -4 -15 -10z"/>
<path d="M15095 2840 c-3 -5 1 -10 9 -10 9 0 16 5 16 10 0 6 -4 10 -9 10 -6 0
-13 -4 -16 -10z"/>
</g>
</svg>
